<svg id="visual" viewBox="0 0 900 600" width="900" height="600" xmlns="http://www.w3.org/2000/svg" xmlns:xlink="http://www.w3.org/1999/xlink" version="1.1"><path d="M0 73L21.5 68C43 63 86 53 128.8 48C171.7 43 214.3 43 257.2 47C300 51 343 59 385.8 63C428.7 67 471.3 67 514.2 68C557 69 600 71 642.8 74C685.7 77 728.3 81 771.2 80C814 79 857 73 878.5 70L900 67L900 0L878.5 0C857 0 814 0 771.2 0C728.3 0 685.7 0 642.8 0C600 0 557 0 514.2 0C471.3 0 428.7 0 385.8 0C343 0 300 0 257.2 0C214.3 0 171.7 0 128.8 0C86 0 43 0 21.5 0L0 0Z" fill="#b2c9ff"></path><path d="M0 145L21.5 150C43 155 86 165 128.8 172C171.7 179 214.3 183 257.2 184C300 185 343 183 385.8 182C428.7 181 471.3 181 514.2 183C557 185 600 189 642.8 181C685.7 173 728.3 153 771.2 143C814 133 857 133 878.5 133L900 133L900 65L878.5 68C857 71 814 77 771.2 78C728.3 79 685.7 75 642.8 72C600 69 557 67 514.2 66C471.3 65 428.7 65 385.8 61C343 57 300 49 257.2 45C214.3 41 171.7 41 128.8 46C86 51 43 61 21.5 66L0 71Z" fill="#9cb8ff"></path><path d="M0 169L21.5 175C43 181 86 193 128.8 201C171.7 209 214.3 213 257.2 217C300 221 343 225 385.8 231C428.7 237 471.3 245 514.2 249C557 253 600 253 642.8 240C685.7 227 728.3 201 771.2 189C814 177 857 179 878.5 180L900 181L900 131L878.5 131C857 131 814 131 771.2 141C728.3 151 685.7 171 642.8 179C600 187 557 183 514.2 181C471.3 179 428.7 179 385.8 180C343 181 300 183 257.2 182C214.3 181 171.7 177 128.8 170C86 163 43 153 21.5 148L0 143Z" fill="#88a6ff"></path><path d="M0 415L21.5 400C43 385 86 355 128.8 343C171.7 331 214.3 337 257.2 343C300 349 343 355 385.8 365C428.7 375 471.3 389 514.2 387C557 385 600 367 642.8 361C685.7 355 728.3 361 771.2 352C814 343 857 319 878.5 307L900 295L900 179L878.5 178C857 177 814 175 771.2 187C728.3 199 685.7 225 642.8 238C600 251 557 251 514.2 247C471.3 243 428.7 235 385.8 229C343 223 300 219 257.2 215C214.3 211 171.7 207 128.8 199C86 191 43 179 21.5 173L0 167Z" fill="#7694ff"></path><path d="M0 463L21.5 451C43 439 86 415 128.8 403C171.7 391 214.3 391 257.2 399C300 407 343 423 385.8 434C428.7 445 471.3 451 514.2 446C557 441 600 425 642.8 425C685.7 425 728.3 441 771.2 432C814 423 857 389 878.5 372L900 355L900 293L878.5 305C857 317 814 341 771.2 350C728.3 359 685.7 353 642.8 359C600 365 557 383 514.2 385C471.3 387 428.7 373 385.8 363C343 353 300 347 257.2 341C214.3 335 171.7 329 128.8 341C86 353 43 383 21.5 398L0 413Z" fill="#6681ff"></path><path d="M0 487L21.5 479C43 471 86 455 128.8 447C171.7 439 214.3 439 257.2 447C300 455 343 471 385.8 480C428.7 489 471.3 491 514.2 482C557 473 600 453 642.8 457C685.7 461 728.3 489 771.2 481C814 473 857 429 878.5 407L900 385L900 353L878.5 370C857 387 814 421 771.2 430C728.3 439 685.7 423 642.8 423C600 423 557 439 514.2 444C471.3 449 428.7 443 385.8 432C343 421 300 405 257.2 397C214.3 389 171.7 389 128.8 401C86 413 43 437 21.5 449L0 461Z" fill="#5b6dff"></path><path d="M0 601L21.5 601C43 601 86 601 128.8 601C171.7 601 214.3 601 257.2 601C300 601 343 601 385.8 601C428.7 601 471.3 601 514.2 601C557 601 600 601 642.8 601C685.7 601 728.3 601 771.2 601C814 601 857 601 878.5 601L900 601L900 383L878.5 405C857 427 814 471 771.2 479C728.3 487 685.7 459 642.8 455C600 451 557 471 514.2 480C471.3 489 428.7 487 385.8 478C343 469 300 453 257.2 445C214.3 437 171.7 437 128.8 445C86 453 43 469 21.5 477L0 485Z" fill="#5656ff"></path></svg>